<svg width="21" height="21" viewBox="0 0 21 21" fill="none" xmlns="http://www.w3.org/2000/svg">
<path d="M3.07617 21H9.92578V13.5352H7.46484V11.0742H9.92578V7.99805C9.92578 6.30183 11.3057 4.92188 13.002 4.92188H16.0781V7.38281H13.6172C12.9387 7.38281 12.3867 7.93476 12.3867 8.61328V11.0742H15.9671L15.5569 13.5352H12.3867V21H17.9238C19.62 21 21 19.62 21 17.9238V3.07617C21 1.37995 19.62 0 17.9238 0H3.07617C1.37995 0 0 1.37995 0 3.07617V17.9238C0 19.62 1.37995 21 3.07617 21ZM1.23047 3.07617C1.23047 2.05847 2.05847 1.23047 3.07617 1.23047H17.9238C18.9415 1.23047 19.7695 2.05847 19.7695 3.07617V17.9238C19.7695 18.9415 18.9415 19.7695 17.9238 19.7695H13.6172V14.7656H16.5993L17.4196 9.84375H13.6172V8.61328H17.3086V3.69141H13.002C10.6272 3.69141 8.69531 5.62331 8.69531 7.99805V9.84375H6.23438V14.7656H8.69531V19.7695H3.07617C2.05847 19.7695 1.23047 18.9415 1.23047 17.9238V3.07617Z" fill="white" fill-opacity="0.7"/>
</svg>
