<svg width="21" height="21" viewBox="0 0 21 21" fill="none" xmlns="http://www.w3.org/2000/svg">
<g clip-path="url(#clip0)">
<path d="M20.9797 6.17406C20.9305 5.05825 20.75 4.29114 20.4915 3.62643C20.2249 2.92085 19.8147 2.28915 19.2772 1.76402C18.752 1.23071 18.1162 0.816306 17.4188 0.553819C16.7502 0.295338 15.9871 0.114898 14.8713 0.0657019C13.7472 0.0123391 13.3903 0 10.5391 0C7.68801 0 7.33113 0.0123391 6.21116 0.0615355C5.09535 0.110732 4.32824 0.291332 3.66369 0.549653C2.95795 0.816306 2.32625 1.22654 1.80112 1.76402C1.26781 2.28915 0.853568 2.92502 0.590921 3.62242C0.33244 4.29114 0.152 5.05408 0.102804 6.16989C0.0494409 7.29403 0.0371017 7.65091 0.0371017 10.5021C0.0371017 13.3532 0.0494409 13.7101 0.0986372 14.83C0.147833 15.9459 0.328434 16.713 0.586914 17.3777C0.853568 18.0833 1.26781 18.715 1.80112 19.2401C2.32625 19.7734 2.96212 20.1878 3.65952 20.4503C4.32824 20.7088 5.09118 20.8892 6.20715 20.9384C7.32697 20.9878 7.684 20.9999 10.5351 20.9999C13.3863 20.9999 13.7432 20.9878 14.8631 20.9384C15.9789 20.8892 16.7461 20.7088 17.4106 20.4503C18.8219 19.9046 19.9377 18.7888 20.4834 17.3777C20.7417 16.709 20.9223 15.9459 20.9715 14.83C21.0207 13.7101 21.033 13.3532 21.033 10.5021C21.033 7.65091 21.0289 7.29403 20.9797 6.17406ZM19.0886 14.748C19.0434 15.7736 18.8711 16.3274 18.7275 16.6966C18.3747 17.6115 17.6486 18.3376 16.7337 18.6904C16.3645 18.834 15.8067 19.0063 14.7851 19.0513C13.6775 19.1007 13.3453 19.1128 10.5433 19.1128C7.74137 19.1128 7.40501 19.1007 6.30138 19.0513C5.27579 19.0063 4.72197 18.834 4.35276 18.6904C3.89749 18.5222 3.48309 18.2555 3.14672 17.9068C2.79802 17.5663 2.53137 17.1561 2.36311 16.7008C2.21953 16.3316 2.04726 15.7736 2.00223 14.7522C1.95287 13.6445 1.94069 13.3122 1.94069 10.5102C1.94069 7.70828 1.95287 7.37192 2.00223 6.26844C2.04726 5.24285 2.21953 4.68903 2.36311 4.31982C2.53137 3.86439 2.79802 3.45015 3.15089 3.11363C3.49126 2.76493 3.90149 2.49828 4.35692 2.33017C4.72613 2.18659 5.28412 2.01432 6.30554 1.96913C7.41318 1.91994 7.74554 1.9076 10.5473 1.9076C13.3534 1.9076 13.6856 1.91994 14.7893 1.96913C15.8149 2.01432 16.3687 2.18659 16.7379 2.33017C17.1931 2.49828 17.6076 2.76493 17.9439 3.11363C18.2926 3.45416 18.5593 3.86439 18.7275 4.31982C18.8711 4.68903 19.0434 5.24686 19.0886 6.26844C19.1378 7.37608 19.1501 7.70828 19.1501 10.5102C19.1501 13.3122 19.1378 13.6404 19.0886 14.748Z" fill="white" fill-opacity="0.7"/>
<path d="M10.5388 5.10756C7.56061 5.10756 5.14423 7.52379 5.14423 10.5022C5.14423 13.4805 7.56061 15.8968 10.5388 15.8968C13.5172 15.8968 15.9334 13.4805 15.9334 10.5022C15.9334 7.52379 13.5172 5.10756 10.5388 5.10756ZM10.5388 14.0015C8.60672 14.0015 7.03949 12.4344 7.03949 10.5022C7.03949 8.56989 8.60672 7.00282 10.5388 7.00282C12.4711 7.00282 14.0382 8.56989 14.0382 10.5022C14.0382 12.4344 12.4711 14.0015 10.5388 14.0015Z" fill="white" fill-opacity="0.7"/>
<path d="M17.4064 4.89418C17.4064 5.58966 16.8425 6.15357 16.1469 6.15357C15.4514 6.15357 14.8875 5.58966 14.8875 4.89418C14.8875 4.19854 15.4514 3.63478 16.1469 3.63478C16.8425 3.63478 17.4064 4.19854 17.4064 4.89418Z" fill="white" fill-opacity="0.7"/>
</g>
<defs>
<clipPath id="clip0">
<rect width="21" height="21" fill="white"/>
</clipPath>
</defs>
</svg>
