<svg width="22" height="22" viewBox="0 0 22 22" fill="none" xmlns="http://www.w3.org/2000/svg">
<path d="M16.5 7.33332H15.5833V5.49999C15.5833 2.96999 13.53 0.916656 11 0.916656C8.46999 0.916656 6.41666 2.96999 6.41666 5.49999V7.33332H5.49999C4.49166 7.33332 3.66666 8.15832 3.66666 9.16666V18.3333C3.66666 19.3417 4.49166 20.1667 5.49999 20.1667H16.5C17.5083 20.1667 18.3333 19.3417 18.3333 18.3333V9.16666C18.3333 8.15832 17.5083 7.33332 16.5 7.33332ZM11 15.5833C9.99166 15.5833 9.16666 14.7583 9.16666 13.75C9.16666 12.7417 9.99166 11.9167 11 11.9167C12.0083 11.9167 12.8333 12.7417 12.8333 13.75C12.8333 14.7583 12.0083 15.5833 11 15.5833ZM13.8417 7.33332H8.15832V5.49999C8.15832 3.93249 9.43249 2.65832 11 2.65832C12.5675 2.65832 13.8417 3.93249 13.8417 5.49999V7.33332Z" fill="white" fill-opacity="0.5"/>
</svg>
