<svg width="22" height="22" viewBox="0 0 22 22" fill="none" xmlns="http://www.w3.org/2000/svg">
<path d="M11 6.41667C13.53 6.41667 15.5833 8.47 15.5833 11C15.5833 11.5958 15.4642 12.155 15.2533 12.6775L17.93 15.3542C19.3142 14.1992 20.405 12.705 21.0742 11C19.4883 6.97583 15.5742 4.125 10.9908 4.125C9.70751 4.125 8.47917 4.35417 7.34251 4.76667L9.32251 6.74667C9.84501 6.53583 10.4042 6.41667 11 6.41667ZM1.83334 3.91417L3.92334 6.00417L4.34501 6.42583C2.82334 7.60833 1.63167 9.185 0.916672 11C2.50251 15.0242 6.41667 17.875 11 17.875C12.4208 17.875 13.7775 17.6 15.015 17.105L15.4 17.49L18.0858 20.1667L19.25 19.0025L2.99751 2.75L1.83334 3.91417ZM6.90251 8.98333L8.32334 10.4042C8.27751 10.5967 8.25001 10.7983 8.25001 11C8.25001 12.5217 9.47834 13.75 11 13.75C11.2017 13.75 11.4033 13.7225 11.5958 13.6767L13.0167 15.0975C12.4025 15.4 11.7242 15.5833 11 15.5833C8.47001 15.5833 6.41667 13.53 6.41667 11C6.41667 10.2758 6.60001 9.5975 6.90251 8.98333ZM10.8533 8.26833L13.7408 11.1558L13.7592 11.0092C13.7592 9.4875 12.5308 8.25917 11.0092 8.25917L10.8533 8.26833Z" fill="white" fill-opacity="0.7"/>
</svg>
